<svg xmlns="http://www.w3.org/2000/svg" viewBox="0 0 125 83" fill="none" stroke="rgba(255,255,255,0.92)" stroke-width="2.5" stroke-linecap="round" stroke-linejoin="round">
  <!-- Top Book - offset right -->
  <g>
    <!-- Main book body -->
    <path d="M30 5 L105 5 Q108 5, 110 8 L110 20 Q108 23, 105 23 L30 28 Q25 28, 22 25 L22 12 Q25 8, 30 5 Z"/>
    <!-- Spine curve -->
    <path d="M22 12 Q18 16, 22 25"/>
    <path d="M30 5 Q26 10, 30 28"/>
    <!-- Page lines on top -->
    <path d="M38 8 L100 6" stroke-width="1.2"/>
    <path d="M36 13 L102 10" stroke-width="1.2"/>
    <path d="M38 18 L100 16" stroke-width="1.2"/>
    <path d="M36 23 L98 21" stroke-width="1.2"/>
  </g>
  
  <!-- Middle Book - offset left -->
  <g>
    <!-- Main book body -->
    <path d="M18 30 L95 30 Q98 30, 100 33 L100 46 Q98 49, 95 49 L18 54 Q13 54, 10 51 L10 37 Q13 33, 18 30 Z"/>
    <!-- Spine curve -->
    <path d="M10 37 Q6 42, 10 51"/>
    <path d="M18 30 Q14 36, 18 54"/>
    <!-- Page lines -->
    <path d="M26 33 L90 32" stroke-width="1.2"/>
    <path d="M24 38 L92 36" stroke-width="1.2"/>
    <path d="M26 43 L90 42" stroke-width="1.2"/>
    <path d="M24 48 L88 47" stroke-width="1.2"/>
  </g>
  
  <!-- Bottom Book - offset right, widest -->
  <g>
    <!-- Main book body -->
    <path d="M25 56 L110 54 Q114 54, 116 57 L116 71 Q114 74, 110 74 L25 79 Q20 79, 17 76 L17 62 Q20 58, 25 56 Z"/>
    <!-- Spine curve -->
    <path d="M17 62 Q13 67, 17 76"/>
    <path d="M25 56 Q21 62, 25 79"/>
    <!-- Page lines -->
    <path d="M33 58 L105 56" stroke-width="1.2"/>
    <path d="M31 63 L108 60" stroke-width="1.2"/>
    <path d="M33 68 L105 66" stroke-width="1.2"/>
    <path d="M31 73 L103 71" stroke-width="1.2"/>
  </g>
</svg>