<svg xmlns="http://www.w3.org/2000/svg" viewBox="0 0 150 100" fill="none" stroke="rgba(255,255,255,0.9)" stroke-width="2" stroke-linecap="round" stroke-linejoin="round">
  <!-- Top Book (angled right) -->
  <g transform="translate(25, 0)">
    <!-- Book outline -->
    <path d="M20 10 C20 10, 95 5, 100 8 L102 12 L102 24 C102 24, 95 28, 20 25 L15 22 L15 14 Z"/>
    <!-- Spine curve -->
    <path d="M15 14 Q12 18, 15 22"/>
    <path d="M20 10 Q17 14, 20 25"/>
    <!-- Page lines -->
    <path d="M30 12 L90 9" stroke-width="1"/>
    <path d="M28 16 L92 13" stroke-width="1"/>
    <path d="M30 20 L90 18" stroke-width="1"/>
  </g>
  
  <!-- Middle Book (angled left) -->
  <g transform="translate(15, 28)">
    <!-- Book outline -->
    <path d="M10 8 C10 8, 85 5, 90 8 L92 12 L92 24 C92 24, 85 28, 10 25 L5 22 L5 14 Z"/>
    <!-- Spine curve -->
    <path d="M5 14 Q2 18, 5 22"/>
    <path d="M10 8 Q7 14, 10 25"/>
    <!-- Page lines -->
    <path d="M20 10 L80 8" stroke-width="1"/>
    <path d="M18 14 L82 12" stroke-width="1"/>
    <path d="M20 18 L80 17" stroke-width="1"/>
  </g>
  
  <!-- Bottom Book (angled right, wider) -->
  <g transform="translate(30, 56)">
    <!-- Book outline -->
    <path d="M15 8 C15 8, 100 4, 105 8 L108 12 L108 24 C108 24, 100 29, 15 26 L10 22 L10 14 Z"/>
    <!-- Spine curve -->
    <path d="M10 14 Q7 18, 10 22"/>
    <path d="M15 8 Q12 14, 15 26"/>
    <!-- Page lines -->
    <path d="M25 10 L95 7" stroke-width="1"/>
    <path d="M23 14 L98 11" stroke-width="1"/>
    <path d="M25 19 L95 16" stroke-width="1"/>
  </g>
</svg>